# xmcd
#
# Track frame offsets: 
#        150
#        7852
#        18035
#        29282
#        41487
#        53952
#        62335
#        73487
#        85310
#        97495
#        108712
#        120807
#        130762
#        136347
#        151495
#        163732
#
# Disc length: 2391 seconds
#
# Revision: 1
# Processed by: cddbd v1.5.2PL0 Copyright (c) Steve Scherf et al.
# Submitted via: ExactAudioCopy v0.99pb5
#
DISCID=d1095510
DTITLE=Bobby Osborne and Jesse McReynolds - Master of the Mandolin
DYEAR=2001
DGENRE=Bluegrass
TTITLE0=Night Runner
TTITLE1=Okeechobee Wind
TTITLE2=East Tennessee Blues
TTITLE3=The Waltz You Saved for Me
TTITLE4=Drifting and Dreaming of You
TTITLE5=Sure Fire
TTITLE6=Soldier's Joy
TTITLE7=Nearer My God to Thee
TTITLE8=Bonaparte's Retreat
TTITLE9=Memories
TTITLE10=Cheyenne
TTITLE11=Goodbye Liza Jane
TTITLE12=7th of December
TTITLE13=Just Wondering Why
TTITLE14=Cotton Patch Rag
TTITLE15=Bluegrass Express
EXTD=
EXTT0=
EXTT1=
EXTT2=
EXTT3=
EXTT4=
EXTT5=
EXTT6=
EXTT7=
EXTT8=
EXTT9=
EXTT10=
EXTT11=
EXTT12=
EXTT13=
EXTT14=
EXTT15=
PLAYORDER=
